<svg width="359" height="54" viewBox="0 0 359 54" fill="none" xmlns="http://www.w3.org/2000/svg">
<g clip-path="url(#clip0_20005128_12944)">
<path d="M232.43 1.59985V1.09985H231.93H20.8C16.1056 1.09985 12.3 4.90544 12.3 9.59986V44.2999C12.3 48.9943 16.1056 52.7999 20.8 52.7999H231.93H232.43V52.2999V1.59985Z" fill="white"/>
<path d="M232.43 1.59985V1.09985H231.93H20.8C16.1056 1.09985 12.3 4.90544 12.3 9.59986V44.2999C12.3 48.9943 16.1056 52.7999 20.8 52.7999H231.93H232.43V52.2999V1.59985Z" stroke="#D4D7E5"/>
<g clip-path="url(#clip1_20005128_12944)">
<path d="M64.664 32.7498V27.9258L60.8 21.2298H62.16L65.256 26.5818L68.336 21.2298H69.696L65.848 27.9258V32.7498H64.664ZM73.1374 32.9898C72.2787 32.9898 71.5454 32.7951 70.9374 32.4058C70.3294 32.0164 69.8627 31.4778 69.5374 30.7898C69.212 30.1018 69.0494 29.3124 69.0494 28.4218C69.0494 27.5151 69.2147 26.7204 69.5454 26.0378C69.876 25.3551 70.3454 24.8244 70.9534 24.4458C71.5667 24.0618 72.2947 23.8698 73.1374 23.8698C74.0014 23.8698 74.7374 24.0644 75.3454 24.4538C75.9587 24.8378 76.4254 25.3738 76.7454 26.0618C77.0707 26.7444 77.2334 27.5311 77.2334 28.4218C77.2334 29.3284 77.0707 30.1258 76.7454 30.8138C76.42 31.4964 75.9507 32.0298 75.3374 32.4138C74.724 32.7978 73.9907 32.9898 73.1374 32.9898ZM73.1374 31.8618C74.0974 31.8618 74.812 31.5444 75.2814 30.9098C75.7507 30.2698 75.9854 29.4404 75.9854 28.4218C75.9854 27.3764 75.748 26.5444 75.2734 25.9258C74.804 25.3071 74.092 24.9978 73.1374 24.9978C72.492 24.9978 71.9587 25.1444 71.5374 25.4378C71.1214 25.7258 70.8094 26.1284 70.6014 26.6458C70.3987 27.1578 70.2974 27.7498 70.2974 28.4218C70.2974 29.4618 70.5374 30.2964 71.0174 30.9258C71.4974 31.5498 72.204 31.8618 73.1374 31.8618ZM82.3021 32.9658C81.7848 32.9658 81.3314 32.8858 80.9421 32.7258C80.5581 32.5658 80.2301 32.3498 79.9581 32.0778C79.6914 31.8058 79.4754 31.4964 79.3101 31.1498C79.1448 30.7978 79.0248 30.4271 78.9501 30.0378C78.8754 29.6431 78.8381 29.2511 78.8381 28.8618V24.1098H80.0221V28.5178C80.0221 28.9924 80.0674 29.4324 80.1581 29.8378C80.2488 30.2431 80.3928 30.5978 80.5901 30.9018C80.7928 31.2004 81.0514 31.4324 81.3661 31.5978C81.6861 31.7631 82.0728 31.8458 82.5261 31.8458C82.9421 31.8458 83.3074 31.7738 83.6221 31.6298C83.9421 31.4858 84.2088 31.2804 84.4221 31.0138C84.6408 30.7418 84.8061 30.4138 84.9181 30.0298C85.0301 29.6404 85.0861 29.2031 85.0861 28.7178L85.9181 28.9018C85.9181 29.7871 85.7634 30.5311 85.4541 31.1338C85.1448 31.7364 84.7181 32.1924 84.1741 32.5018C83.6301 32.8111 83.0061 32.9658 82.3021 32.9658ZM85.2061 32.7498V30.6218H85.0861V24.1098H86.2621V32.7498H85.2061ZM88.4981 32.7498V24.1098H89.5541V26.1898L89.3461 25.9178C89.4421 25.6618 89.5674 25.4271 89.7221 25.2138C89.8768 24.9951 90.0448 24.8164 90.2261 24.6778C90.4501 24.4804 90.7114 24.3311 91.0101 24.2298C91.3088 24.1231 91.6101 24.0618 91.9141 24.0458C92.2181 24.0244 92.4954 24.0458 92.7461 24.1098V25.2138C92.4314 25.1338 92.0874 25.1151 91.7141 25.1578C91.3408 25.2004 90.9968 25.3498 90.6821 25.6058C90.3941 25.8298 90.1781 26.0991 90.0341 26.4138C89.8901 26.7231 89.7941 27.0538 89.7461 27.4058C89.6981 27.7524 89.6741 28.0964 89.6741 28.4378V32.7498H88.4981ZM101.123 32.9898C100.28 32.9898 99.5495 32.8031 98.9309 32.4298C98.3175 32.0564 97.8402 31.5311 97.4989 30.8538C97.1575 30.1764 96.9869 29.3818 96.9869 28.4698C96.9869 27.5258 97.1549 26.7098 97.4909 26.0218C97.8269 25.3338 98.2989 24.8031 98.9069 24.4298C99.5202 24.0564 100.243 23.8698 101.075 23.8698C101.928 23.8698 102.656 24.0671 103.259 24.4618C103.862 24.8511 104.318 25.4111 104.627 26.1418C104.936 26.8724 105.078 27.7444 105.051 28.7578H103.851V28.3418C103.83 27.2218 103.587 26.3764 103.123 25.8058C102.664 25.2351 101.992 24.9498 101.107 24.9498C100.179 24.9498 99.4669 25.2511 98.9709 25.8538C98.4802 26.4564 98.2349 27.3151 98.2349 28.4298C98.2349 29.5178 98.4802 30.3631 98.9709 30.9658C99.4669 31.5631 100.168 31.8618 101.075 31.8618C101.694 31.8618 102.232 31.7204 102.691 31.4378C103.155 31.1498 103.52 30.7364 103.787 30.1978L104.883 30.6218C104.542 31.3738 104.038 31.9578 103.371 32.3738C102.71 32.7844 101.96 32.9898 101.123 32.9898ZM97.8189 28.7578V27.7738H104.419V28.7578H97.8189ZM116.896 32.7498L116.904 27.0778C116.904 26.4111 116.717 25.8884 116.344 25.5098C115.976 25.1258 115.507 24.9338 114.936 24.9338C114.611 24.9338 114.293 25.0084 113.984 25.1578C113.675 25.3071 113.419 25.5471 113.216 25.8778C113.019 26.2084 112.92 26.6404 112.92 27.1738L112.224 26.9738C112.208 26.3551 112.328 25.8138 112.584 25.3498C112.845 24.8858 113.203 24.5258 113.656 24.2698C114.115 24.0084 114.632 23.8778 115.208 23.8778C116.077 23.8778 116.773 24.1471 117.296 24.6858C117.819 25.2191 118.08 25.9418 118.08 26.8538L118.072 32.7498H116.896ZM106.584 32.7498V24.1098H107.64V26.2378H107.768V32.7498H106.584ZM111.752 32.7498L111.76 27.1578C111.76 26.4698 111.576 25.9284 111.208 25.5338C110.845 25.1338 110.365 24.9338 109.768 24.9338C109.171 24.9338 108.688 25.1391 108.32 25.5498C107.952 25.9551 107.768 26.4964 107.768 27.1738L107.064 26.7898C107.064 26.2351 107.195 25.7391 107.456 25.3018C107.717 24.8591 108.075 24.5124 108.528 24.2618C108.981 24.0058 109.496 23.8778 110.072 23.8778C110.621 23.8778 111.109 23.9951 111.536 24.2298C111.968 24.4644 112.307 24.8058 112.552 25.2538C112.797 25.7018 112.92 26.2458 112.92 26.8858L112.912 32.7498H111.752ZM122.626 32.9898C121.976 32.9898 121.429 32.8724 120.986 32.6378C120.549 32.4031 120.221 32.0911 120.002 31.7018C119.784 31.3124 119.674 30.8884 119.674 30.4298C119.674 29.9604 119.768 29.5604 119.954 29.2298C120.146 28.8938 120.405 28.6191 120.73 28.4058C121.061 28.1924 121.442 28.0298 121.874 27.9178C122.312 27.8111 122.794 27.7178 123.322 27.6378C123.856 27.5524 124.376 27.4804 124.882 27.4218C125.394 27.3578 125.842 27.2964 126.226 27.2378L125.81 27.4938C125.826 26.6404 125.661 26.0084 125.314 25.5978C124.968 25.1871 124.365 24.9818 123.506 24.9818C122.914 24.9818 122.413 25.1151 122.002 25.3818C121.597 25.6484 121.312 26.0698 121.146 26.6458L120.002 26.3098C120.2 25.5364 120.597 24.9364 121.194 24.5098C121.792 24.0831 122.568 23.8698 123.522 23.8698C124.312 23.8698 124.981 24.0191 125.53 24.3178C126.085 24.6111 126.477 25.0378 126.706 25.5978C126.813 25.8484 126.882 26.1284 126.914 26.4378C126.946 26.7471 126.962 27.0618 126.962 27.3818V32.7498H125.914V30.5818L126.218 30.7098C125.925 31.4511 125.469 32.0164 124.85 32.4058C124.232 32.7951 123.49 32.9898 122.626 32.9898ZM122.762 31.9738C123.312 31.9738 123.792 31.8751 124.202 31.6778C124.613 31.4804 124.944 31.2111 125.194 30.8698C125.445 30.5231 125.608 30.1338 125.682 29.7018C125.746 29.4244 125.781 29.1204 125.786 28.7898C125.792 28.4538 125.794 28.2031 125.794 28.0378L126.242 28.2698C125.842 28.3231 125.408 28.3764 124.938 28.4298C124.474 28.4831 124.016 28.5444 123.562 28.6138C123.114 28.6831 122.709 28.7658 122.346 28.8618C122.101 28.9311 121.864 29.0298 121.634 29.1578C121.405 29.2804 121.216 29.4458 121.066 29.6538C120.922 29.8618 120.85 30.1204 120.85 30.4298C120.85 30.6804 120.912 30.9231 121.034 31.1578C121.162 31.3924 121.365 31.5871 121.642 31.7418C121.925 31.8964 122.298 31.9738 122.762 31.9738ZM129.205 22.4698V21.1498H130.381V22.4698H129.205ZM129.205 32.7498V24.1098H130.381V32.7498H129.205ZM132.939 32.7498V20.9898H134.115V32.7498H132.939Z" fill="#B4B7C9"/>
</g>
<path d="M42.861 20.6655H31.1391C30.7266 20.6655 30.3771 20.8087 30.0906 21.0952C29.8042 21.3816 29.6609 21.7254 29.6609 22.1264V30.9264C29.6609 31.3275 29.8042 31.6741 30.0906 31.9663C30.3771 32.2584 30.7266 32.4045 31.1391 32.4045H42.861C43.2734 32.4045 43.6229 32.2584 43.9094 31.9663C44.1958 31.6741 44.3391 31.3275 44.3391 30.9264V22.1264C44.3391 21.7254 44.1958 21.3816 43.9094 21.0952C43.6229 20.8087 43.2734 20.6655 42.861 20.6655ZM42.861 22.1264V22.5045L37 27.0764L31.1391 22.5045V22.1264H42.861ZM31.1391 30.9264V24.3608L36.5531 28.5717C36.6104 28.6176 36.6792 28.6548 36.7594 28.6834C36.8396 28.7121 36.9198 28.7264 37 28.7264C37.0802 28.7264 37.1604 28.7121 37.2406 28.6834C37.3208 28.6548 37.3896 28.6176 37.4469 28.5717L42.861 24.3608V30.9264H31.1391Z" fill="#9397AD"/>
</g>
<path d="M232.23 1.2998H338.41C342.552 1.2998 345.91 4.65767 345.91 8.7998V45.0998C345.91 49.2419 342.552 52.5998 338.41 52.5998H232.23V1.2998Z" fill="#6366F1"/>
<path d="M232.23 1.2998H338.41C342.552 1.2998 345.91 4.65767 345.91 8.7998V45.0998C345.91 49.2419 342.552 52.5998 338.41 52.5998H232.23V1.2998Z" stroke="#6366F1"/>
<path d="M255.969 33.3899C255.142 33.3899 254.395 33.2486 253.729 32.9659C253.067 32.6779 252.521 32.2699 252.089 31.7419C251.662 31.2086 251.385 30.5766 251.257 29.8459L253.001 29.5819C253.177 30.2859 253.545 30.8352 254.105 31.2299C254.665 31.6192 255.318 31.8139 256.065 31.8139C256.529 31.8139 256.955 31.7419 257.345 31.5979C257.734 31.4486 258.046 31.2379 258.281 30.9659C258.521 30.6886 258.641 30.3579 258.641 29.9739C258.641 29.7659 258.603 29.5819 258.529 29.4219C258.459 29.2619 258.361 29.1232 258.233 29.0059C258.11 28.8832 257.958 28.7792 257.777 28.6939C257.601 28.6032 257.406 28.5259 257.193 28.4619L254.241 27.5899C253.953 27.5046 253.659 27.3952 253.361 27.2619C253.062 27.1232 252.787 26.9446 252.537 26.7259C252.291 26.5019 252.091 26.2272 251.937 25.9019C251.782 25.5712 251.705 25.1712 251.705 24.7019C251.705 23.9926 251.886 23.3926 252.249 22.9019C252.617 22.4059 253.113 22.0326 253.737 21.7819C254.361 21.5259 255.059 21.3979 255.833 21.3979C256.611 21.4086 257.307 21.5472 257.921 21.8139C258.539 22.0806 259.051 22.4646 259.457 22.9659C259.867 23.4619 260.15 24.0646 260.305 24.7739L258.513 25.0779C258.433 24.6459 258.262 24.2752 258.001 23.9659C257.739 23.6512 257.419 23.4112 257.041 23.2459C256.662 23.0752 256.251 22.9872 255.809 22.9819C255.382 22.9712 254.99 23.0352 254.633 23.1739C254.281 23.3126 253.998 23.5072 253.785 23.7579C253.577 24.0086 253.473 24.2966 253.473 24.6219C253.473 24.9419 253.566 25.2006 253.753 25.3979C253.939 25.5952 254.169 25.7526 254.441 25.8699C254.718 25.9819 254.993 26.0752 255.265 26.1499L257.393 26.7499C257.659 26.8246 257.961 26.9259 258.297 27.0539C258.638 27.1766 258.966 27.3499 259.281 27.5739C259.601 27.7979 259.865 28.0966 260.073 28.4699C260.281 28.8379 260.385 29.3019 260.385 29.8619C260.385 30.4432 260.267 30.9552 260.033 31.3979C259.798 31.8352 259.475 32.2032 259.065 32.5019C258.659 32.7952 258.19 33.0166 257.657 33.1659C257.123 33.3152 256.561 33.3899 255.969 33.3899ZM265.345 33.3819C264.748 33.3819 264.247 33.2859 263.841 33.0939C263.436 32.9019 263.105 32.6512 262.849 32.3419C262.599 32.0272 262.407 31.6859 262.273 31.3179C262.14 30.9499 262.049 30.5899 262.001 30.2379C261.953 29.8859 261.929 29.5766 261.929 29.3099V24.5099H263.625V28.7579C263.625 29.0939 263.652 29.4406 263.705 29.7979C263.764 30.1499 263.871 30.4779 264.025 30.7819C264.185 31.0859 264.407 31.3312 264.689 31.5179C264.977 31.7046 265.351 31.7979 265.809 31.7979C266.108 31.7979 266.391 31.7499 266.657 31.6539C266.924 31.5526 267.156 31.3926 267.353 31.1739C267.556 30.9552 267.713 30.6672 267.825 30.3099C267.943 29.9526 268.001 29.5179 268.001 29.0059L269.041 29.3979C269.041 30.1819 268.895 30.8752 268.601 31.4779C268.308 32.0752 267.887 32.5419 267.337 32.8779C266.788 33.2139 266.124 33.3819 265.345 33.3819ZM268.201 33.1499V30.6539H268.001V24.5099H269.689V33.1499H268.201ZM275.989 33.3899C275.163 33.3899 274.469 33.1899 273.909 32.7899C273.349 32.3846 272.925 31.8379 272.637 31.1499C272.349 30.4619 272.205 29.6859 272.205 28.8219C272.205 27.9579 272.347 27.1819 272.629 26.4939C272.917 25.8059 273.339 25.2646 273.893 24.8699C274.453 24.4699 275.141 24.2699 275.957 24.2699C276.768 24.2699 277.467 24.4699 278.053 24.8699C278.645 25.2646 279.101 25.8059 279.421 26.4939C279.741 27.1766 279.901 27.9526 279.901 28.8219C279.901 29.6859 279.741 30.4646 279.421 31.1579C279.107 31.8459 278.656 32.3899 278.069 32.7899C277.488 33.1899 276.795 33.3899 275.989 33.3899ZM271.925 33.1499V21.6299H273.605V26.9339H273.413V33.1499H271.925ZM275.757 31.8779C276.291 31.8779 276.731 31.7419 277.077 31.4699C277.429 31.1979 277.691 30.8326 277.861 30.3739C278.037 29.9099 278.125 29.3926 278.125 28.8219C278.125 28.2566 278.037 27.7446 277.861 27.2859C277.691 26.8272 277.427 26.4619 277.069 26.1899C276.712 25.9179 276.256 25.7819 275.701 25.7819C275.179 25.7819 274.747 25.9099 274.405 26.1659C274.069 26.4219 273.819 26.7792 273.653 27.2379C273.493 27.6966 273.413 28.2246 273.413 28.8219C273.413 29.4192 273.493 29.9472 273.653 30.4059C273.813 30.8646 274.067 31.2246 274.413 31.4859C274.76 31.7472 275.208 31.8779 275.757 31.8779ZM284.815 33.3819C283.765 33.3819 282.909 33.1499 282.247 32.6859C281.586 32.2219 281.181 31.5686 281.031 30.7259L282.743 30.4619C282.85 30.9099 283.095 31.2646 283.479 31.5259C283.869 31.7819 284.351 31.9099 284.927 31.9099C285.45 31.9099 285.858 31.8032 286.151 31.5899C286.45 31.3766 286.599 31.0832 286.599 30.7099C286.599 30.4912 286.546 30.3152 286.439 30.1819C286.338 30.0432 286.122 29.9126 285.791 29.7899C285.461 29.6672 284.957 29.5152 284.279 29.3339C283.538 29.1419 282.949 28.9366 282.511 28.7179C282.079 28.4939 281.77 28.2352 281.583 27.9419C281.402 27.6432 281.311 27.2832 281.311 26.8619C281.311 26.3392 281.45 25.8832 281.727 25.4939C282.005 25.1046 282.394 24.8032 282.895 24.5899C283.402 24.3766 283.994 24.2699 284.671 24.2699C285.333 24.2699 285.922 24.3739 286.439 24.5819C286.957 24.7899 287.375 25.0859 287.695 25.4699C288.015 25.8486 288.207 26.2939 288.271 26.8059L286.559 27.1179C286.501 26.7019 286.306 26.3739 285.975 26.1339C285.645 25.8939 285.215 25.7632 284.687 25.7419C284.181 25.7206 283.77 25.8059 283.455 25.9979C283.141 26.1846 282.983 26.4432 282.983 26.7739C282.983 26.9659 283.042 27.1286 283.159 27.2619C283.282 27.3952 283.517 27.5232 283.863 27.6459C284.21 27.7686 284.722 27.9152 285.399 28.0859C286.125 28.2726 286.701 28.4806 287.127 28.7099C287.554 28.9339 287.858 29.2032 288.039 29.5179C288.226 29.8272 288.319 30.2032 288.319 30.6459C288.319 31.4992 288.007 32.1686 287.383 32.6539C286.765 33.1392 285.909 33.3819 284.815 33.3819ZM293.785 33.3899C292.9 33.3899 292.148 33.1926 291.529 32.7979C290.911 32.4032 290.436 31.8619 290.105 31.1739C289.78 30.4859 289.615 29.7046 289.609 28.8299C289.615 27.9392 289.785 27.1526 290.121 26.4699C290.457 25.7819 290.937 25.2432 291.561 24.8539C292.185 24.4646 292.935 24.2699 293.809 24.2699C294.753 24.2699 295.559 24.5046 296.225 24.9739C296.897 25.4432 297.34 26.0859 297.553 26.9019L295.889 27.3819C295.724 26.8966 295.452 26.5206 295.073 26.2539C294.7 25.9819 294.271 25.8459 293.785 25.8459C293.236 25.8459 292.785 25.9766 292.433 26.2379C292.081 26.4939 291.82 26.8459 291.649 27.2939C291.479 27.7419 291.391 28.2539 291.385 28.8299C291.391 29.7206 291.593 30.4406 291.993 30.9899C292.399 31.5392 292.996 31.8139 293.785 31.8139C294.324 31.8139 294.759 31.6912 295.089 31.4459C295.425 31.1952 295.681 30.8379 295.857 30.3739L297.553 30.7739C297.271 31.6166 296.804 32.2646 296.153 32.7179C295.503 33.1659 294.713 33.3899 293.785 33.3899ZM299.183 33.1499V24.5099H300.671V26.6059L300.463 26.3339C300.57 26.0566 300.709 25.8032 300.879 25.5739C301.05 25.3392 301.247 25.1472 301.471 24.9979C301.69 24.8379 301.933 24.7152 302.199 24.6299C302.471 24.5392 302.749 24.4859 303.031 24.4699C303.314 24.4486 303.586 24.4619 303.847 24.5099V26.0779C303.565 26.0032 303.25 25.9819 302.903 26.0139C302.562 26.0459 302.247 26.1552 301.959 26.3419C301.687 26.5179 301.471 26.7312 301.311 26.9819C301.157 27.2326 301.045 27.5126 300.975 27.8219C300.906 28.1259 300.871 28.4486 300.871 28.7899V33.1499H299.183ZM305.531 23.0939V21.4699H307.203V23.0939H305.531ZM305.531 33.1499V24.5099H307.203V33.1499H305.531ZM313.661 33.3899C312.834 33.3899 312.141 33.1899 311.581 32.7899C311.021 32.3846 310.597 31.8379 310.309 31.1499C310.021 30.4619 309.877 29.6859 309.877 28.8219C309.877 27.9579 310.018 27.1819 310.301 26.4939C310.589 25.8059 311.01 25.2646 311.565 24.8699C312.125 24.4699 312.813 24.2699 313.629 24.2699C314.44 24.2699 315.138 24.4699 315.725 24.8699C316.317 25.2646 316.773 25.8059 317.093 26.4939C317.413 27.1766 317.573 27.9526 317.573 28.8219C317.573 29.6859 317.413 30.4646 317.093 31.1579C316.778 31.8459 316.328 32.3899 315.741 32.7899C315.16 33.1899 314.466 33.3899 313.661 33.3899ZM309.597 33.1499V21.6299H311.277V26.9339H311.085V33.1499H309.597ZM313.429 31.8779C313.962 31.8779 314.402 31.7419 314.749 31.4699C315.101 31.1979 315.362 30.8326 315.533 30.3739C315.709 29.9099 315.797 29.3926 315.797 28.8219C315.797 28.2566 315.709 27.7446 315.533 27.2859C315.362 26.8272 315.098 26.4619 314.741 26.1899C314.384 25.9179 313.928 25.7819 313.373 25.7819C312.85 25.7819 312.418 25.9099 312.077 26.1659C311.741 26.4219 311.49 26.7792 311.325 27.2379C311.165 27.6966 311.085 28.2246 311.085 28.8219C311.085 29.4192 311.165 29.9472 311.325 30.4059C311.485 30.8646 311.738 31.2246 312.085 31.4859C312.432 31.7472 312.88 31.8779 313.429 31.8779ZM323.171 33.3899C322.313 33.3899 321.558 33.2032 320.907 32.8299C320.262 32.4512 319.758 31.9259 319.395 31.2539C319.038 30.5766 318.859 29.7926 318.859 28.9019C318.859 27.9579 319.035 27.1392 319.387 26.4459C319.745 25.7526 320.241 25.2166 320.875 24.8379C321.51 24.4592 322.249 24.2699 323.091 24.2699C323.971 24.2699 324.721 24.4752 325.339 24.8859C325.958 25.2912 326.419 25.8699 326.723 26.6219C327.033 27.3739 327.155 28.2672 327.091 29.3019H325.419V28.6939C325.409 27.6912 325.217 26.9499 324.843 26.4699C324.475 25.9899 323.913 25.7499 323.155 25.7499C322.318 25.7499 321.689 26.0139 321.267 26.5419C320.846 27.0699 320.635 27.8326 320.635 28.8299C320.635 29.7792 320.846 30.5152 321.267 31.0379C321.689 31.5552 322.297 31.8139 323.091 31.8139C323.614 31.8139 324.065 31.6966 324.443 31.4619C324.827 31.2219 325.126 30.8806 325.339 30.4379L326.979 30.9579C326.643 31.7312 326.134 32.3312 325.451 32.7579C324.769 33.1792 324.009 33.3899 323.171 33.3899ZM320.091 29.3019V27.9979H326.259V29.3019H320.091Z" fill="white"/>
<defs>
<clipPath id="clip0_20005128_12944">
<rect width="232.73" height="52.3" fill="white" transform="translate(0 0.799805)"/>
</clipPath>
<clipPath id="clip1_20005128_12944">
<rect width="153.13" height="21.6" fill="white" transform="translate(60.8 15.7498)"/>
</clipPath>
</defs>
</svg>
